<?xml version="1.0" encoding="utf-8"?>
<!-- Svg Vector Icons : http://www.onlinewebfonts.com/icon -->
<!DOCTYPE svg PUBLIC "-//W3C//DTD SVG 1.1//EN" "http://www.w3.org/Graphics/SVG/1.1/DTD/svg11.dtd">
<svg version="1.1" xmlns="http://www.w3.org/2000/svg" xmlns:xlink="http://www.w3.org/1999/xlink" x="0px" y="0px" viewBox="0 0 1000 1000" enable-background="new 0 0 1000 1000" xml:space="preserve">
<metadata> Svg Vector Icons : http://www.onlinewebfonts.com/icon </metadata>
<g><g transform="translate(0.000000,511.000000) scale(0.100000,-0.100000)"><path d="M7022.8,4863.6c-82.4-45.1-98.1-102-100-357v-239.3l-111.8-13.7c-174.6-21.6-433.5-102-580.6-182.4c-247.1-133.4-435.4-360.9-525.7-635.5c-66.7-200-68.7-586.4-3.9-790.4c123.6-392.3,394.2-617.8,984.6-814l227.5-76.5l5.9-708.1l3.9-708.1l-43.2,13.7c-166.7,51-349.1,204-435.4,360.9c-29.4,54.9-88.3,192.2-129.4,306c-82.4,225.6-107.9,262.8-207.9,311.9c-84.4,39.2-280.5,41.2-353.1,3.9c-78.5-41.2-156.9-127.5-192.2-213.8c-111.8-266.7,117.7-784.5,464.8-1047.4c211.8-158.9,610-321.7,796.3-321.7c90.2,0,96.1-15.7,103.9-280.5c5.9-249.1,5.9-253,60.8-300.1c72.6-62.8,170.6-62.8,243.2,0c54.9,47.1,54.9,53,64.7,309.9l9.8,260.8l111.8,13.7c182.4,23.5,349.1,72.5,537.4,160.8c425.6,202,698.3,612,727.7,1102.3c27.5,429.5-155,815.9-496.2,1059.1c-139.3,100-333.4,180.4-668.8,282.4l-221.6,66.7v625.7v625.7l54.9-13.7c74.5-17.7,229.5-119.6,290.3-190.3c60.8-74.5,135.3-221.6,153-302c21.6-100,117.7-233.4,194.2-268.7c96.1-47.1,270.7-43.2,366.8,5.9c43.2,21.6,102,76.5,131.4,121.6c47.1,68.7,54.9,102,53,213.8c0,115.7-11.8,154.9-82.4,296.2c-149.1,300.1-376.6,517.8-641.4,613.9c-149.1,53-378.5,107.9-464.8,107.9h-54.9v235.4c0,262.8-23.5,341.3-109.8,372.7C7119,4896.9,7079.7,4895,7022.8,4863.6z M6922.8,3116c0-317.7-5.9-578.6-11.8-578.6c-7.9,0-80.4,31.4-160.8,70.6c-174.6,84.3-300.1,202-333.4,313.8c-54.9,186.3-15.7,433.5,90.2,543.3c88.3,92.2,317.7,223.6,402.1,229.5C6916.9,3694.6,6922.8,3433.8,6922.8,3116z M7575.9,1535.2c270.7-137.3,351.1-251.1,362.9-510c7.9-151,2-182.4-41.2-278.5c-94.1-207.9-307.9-376.6-527.6-415.8l-74.5-13.7V986v668.8l98.1-39.2C7448.5,1594,7530.8,1556.7,7575.9,1535.2z"/><path d="M256.1-387c-37.3-7.8-84.3-33.3-107.9-54.9l-41.2-43.2l-5.9-1514.2c-3.9-1112.1,2-1527.9,17.6-1569.1c45.1-107.9,66.7-111.8,543.3-111.8h439.4l56.9,56.9l56.9,56.9v1531.8v1531.8l-53,58.8l-54.9,58.8l-394.2,5.9C497.4-377.2,291.4-379.1,256.1-387z"/><path d="M3009.9-575.3c-341.3-35.3-941.5-155-1259.2-251c-262.8-80.4-241.3,27.4-241.3-1190.6c0-1119.9,0-1119.9,103.9-1176.8c23.5-11.8,153-39.2,284.4-58.8c296.2-41.2,400.1-84.3,1504.4-613.9c835.5-402.1,1404.3-659,1647.6-747.3c145.1-53,178.5-56.9,421.7-54.9c302,0,349.1,5.9,1353.3,164.8c404,64.7,845.3,129.4,978.7,147.1c153,19.6,288.3,51,370.7,82.4c117.7,47.1,976.8,602.1,1249.4,808.1c319.7,241.2,437.4,380.5,468.8,557c17.6,92.2-17.7,153-104,190.3c-33.3,13.7-60.8,29.4-60.8,37.3c0,7.8,29.4,43.1,66.7,78.4c84.3,82.4,117.7,158.9,102,241.3c-19.6,105.9-76.5,178.5-190.2,241.3c-100,54.9-117.7,58.8-311.9,56.9c-174.6,0-225.6-7.8-341.3-52.9c-182.4-72.6-321.7-160.8-531.5-337.4c-217.7-184.4-323.6-245.2-549.2-321.7c-262.8-86.3-847.3-158.9-1274.9-158.9c-413.8,0-619.8,49-1186.6,280.5c-241.3,100-258.9,109.8-205.9,123.6c127.5,33.3,1339.6,0,1873.1-53c453.1-43.1,478.6-43.1,588.4-7.8c188.3,62.8,386.4,321.7,423.6,555.1c15.7,103.9-56.9,264.8-162.8,358.9c-217.7,190.3-896.3,355-1728,419.7c-598.2,47.1-647.2,58.8-1033.6,245.2c-496.2,239.3-702.2,315.8-1069,396.2c-154.9,33.3-264.8,41.2-647.2,45.1C3296.2-567.4,3053-569.4,3009.9-575.3z"/></g></g>
</svg>