<?xml version="1.0" encoding="utf-8"?>
<!-- Svg Vector Icons : http://www.onlinewebfonts.com/icon -->
<!DOCTYPE svg PUBLIC "-//W3C//DTD SVG 1.1//EN" "http://www.w3.org/Graphics/SVG/1.1/DTD/svg11.dtd">
<svg version="1.1" xmlns="http://www.w3.org/2000/svg" xmlns:xlink="http://www.w3.org/1999/xlink" x="0px" y="0px" viewBox="0 0 1000 1000" enable-background="new 0 0 1000 1000" xml:space="preserve">
<metadata> Svg Vector Icons : http://www.onlinewebfonts.com/icon </metadata>
<g><g transform="translate(0.000000,511.000000) scale(0.100000,-0.100000)"><path d="M8881,4759.2c-829-223.1-972.3-268.1-978.4-300.9c-4.1-26.6,61.4-106.4,200.6-243.6l204.7-204.7l-986.6-986.6l-988.6-988.6l-675.5,675.5c-583.4,583.4-685.7,675.5-736.9,675.5c-53.2,0-354.1-292.7-2439.9-2380.5C615.8-859.4,100-1383.4,100-1424.4c0-71.6,481-552.7,552.7-552.7c40.9,0,505.6,454.4,2159.4,2108.3l2108.3,2108.3l685.7-685.7c431.9-429.8,702.1-685.7,726.6-685.7c26.6,0,499.5,460.5,1310,1269.1l1269.1,1269.1l204.7-204.7c112.6-112.6,219-204.7,239.5-204.7c43,0,20.5-69.6,331.6,1093c227.2,847.4,245.6,939.5,178.1,931.3C9859.4,5021.2,9415.3,4902.5,8881,4759.2z"/><path d="M7923.1,2008.2l-945.7-945.7v-2900.4v-2900.4l45-30.7c38.9-28.6,159.6-32.7,902.7-32.7h855.6l49.1,51.2l51.2,49.1v3829.7c0,2104.2-2,3827.6-6.1,3827.6C8872.9,2955.9,8445.1,2530.2,7923.1,2008.2z"/><path d="M4484.4,1394.2l-433.9-433.9v-2830.8v-2830.8l51.2-49.1l49.1-51.2h861.7h861.7l53.2,53.2l53.2,53.2l-14.3,2746.9L5954,796.5l-517.9,517.9l-515.8,515.8L4484.4,1394.2z"/><path d="M2091.6-998.6l-947.7-947.7v-1377.5v-1377.5l51.2-49.1l49.1-51.2h857.6c788,0,863.8,2,902.7,36.8l43,34.8l-4.1,2339.6L3037.3-53L2091.6-998.6z"/></g></g>
</svg>